<?xml version="1.0" standalone="no"?>
<!DOCTYPE svg PUBLIC "-//W3C//DTD SVG 20010904//EN"
 "http://www.w3.org/TR/2001/REC-SVG-20010904/DTD/svg10.dtd">
<svg version="1.0" xmlns="http://www.w3.org/2000/svg"
 width="512.000000pt" height="512.000000pt" viewBox="0 0 512.000000 512.000000"
 preserveAspectRatio="xMidYMid meet">
<metadata>
Created by potrace 1.11, written by Peter Selinger 2001-2013
</metadata>
<g transform="translate(0.000000,512.000000) scale(0.100000,-0.100000)"
fill="#000000" stroke="none">
<path d="M4432 4225 c-38 -12 -86 -42 -124 -77 -7 -7 -47 -42 -88 -78 -81 -70
-144 -126 -170 -150 -8 -8 -31 -28 -50 -44 -19 -16 -66 -57 -105 -91 -38 -34
-113 -100 -165 -145 -80 -70 -203 -178 -244 -215 -6 -6 -42 -37 -81 -70 -38
-33 -72 -63 -75 -66 -3 -3 -63 -57 -135 -119 -71 -63 -135 -119 -141 -124 -6
-6 -38 -33 -70 -61 -32 -27 -65 -57 -74 -65 -9 -8 -45 -40 -80 -70 -35 -30
-75 -66 -89 -79 -15 -13 -48 -42 -75 -65 -27 -22 -59 -50 -70 -61 -12 -11 -55
-49 -96 -85 -41 -36 -80 -69 -86 -75 -25 -23 -85 -75 -194 -170 -63 -55 -117
-102 -120 -105 -3 -3 -41 -37 -85 -75 -44 -39 -95 -84 -115 -101 -19 -17 -62
-55 -95 -84 -33 -29 -78 -69 -101 -89 -22 -20 -66 -58 -98 -86 -32 -27 -68
-58 -79 -67 -24 -21 -37 -23 -37 -5 0 11 -42 110 -114 270 -8 17 -47 106 -86
197 -79 180 -105 239 -126 285 -7 17 -71 163 -143 325 -186 425 -185 422 -222
458 -116 115 -292 111 -403 -8 -54 -58 -81 -137 -73 -214 5 -45 74 -214 246
-601 37 -81 91 -204 176 -400 48 -110 98 -222 110 -250 12 -27 55 -124 95
-215 40 -91 81 -185 92 -210 11 -25 30 -67 42 -95 12 -27 33 -76 47 -109 32
-77 102 -148 171 -174 100 -38 226 -9 308 70 19 18 69 63 112 100 42 36 91 79
110 95 93 84 199 176 294 260 35 31 156 137 168 148 6 6 45 39 86 75 41 36 77
67 80 70 3 3 39 34 80 70 41 36 91 79 110 96 19 17 98 86 175 154 218 191 268
234 279 245 6 6 47 41 91 80 44 38 85 74 91 80 6 5 37 33 68 60 32 28 68 59
80 70 12 11 48 43 80 70 33 28 71 61 86 75 31 28 50 45 165 145 44 38 85 74
91 80 15 13 126 112 244 214 52 46 122 107 155 137 33 29 71 62 85 74 14 12
39 34 55 48 17 15 84 74 150 131 180 156 220 200 240 264 69 219 -134 421
-353 352z"/>
</g>
</svg>
