<svg width="183" height="26" viewBox="0 0 183 26" fill="none" xmlns="http://www.w3.org/2000/svg">
<path fill-rule="evenodd" clip-rule="evenodd" d="M128.553 3.8608C129.469 3.05667 129.558 1.66344 128.753 0.748953C127.947 -0.165539 126.551 -0.254999 125.635 0.549137L103.306 20.1479L98.2136 8.55463C97.7237 7.43934 96.4208 6.93159 95.3035 7.42053C94.1861 7.90947 93.6774 9.20996 94.1673 10.3252L100.472 24.6803C100.755 25.3246 101.329 25.7954 102.017 25.9477C102.705 26.1 103.425 25.9154 103.954 25.4509L128.553 3.8608ZM114.27 23.7998V20.4999L118.353 16.9169V23.7998C118.353 24.9376 117.451 25.8372 116.311 25.8372C115.172 25.8372 114.27 24.9376 114.27 23.7998ZM122.99 23.6411V12.8468L129.473 7.15691H135.316C136.324 7.15691 137.145 7.97715 137.145 8.9826C137.145 9.98806 136.324 10.7818 135.316 10.7818H127.046V14.5391H134.123C135.131 14.5391 135.952 15.3593 135.952 16.3648C135.952 17.3702 135.131 18.164 134.123 18.164H127.046V22.0535H135.449C136.456 22.0535 137.278 22.8737 137.278 23.8792C137.278 24.8847 136.456 25.6784 135.449 25.6784H125.031C123.891 25.6784 122.99 24.7788 122.99 23.6411ZM183 20.2014C183 23.8792 180.19 25.943 176.187 25.943C173.749 25.943 171.283 25.2022 169.216 23.7204C168.765 23.4029 168.447 22.8208 168.447 22.1858C168.447 21.1274 169.295 20.3072 170.355 20.3072C170.886 20.3072 171.257 20.4924 171.522 20.6776C172.927 21.7095 174.464 22.3446 176.267 22.3446C177.937 22.3446 178.944 21.6831 178.944 20.5982V20.5453C178.944 19.5134 178.308 18.9842 175.207 18.1904C171.469 17.2379 169.057 16.206 169.057 12.5282V12.4752C169.057 9.1149 171.76 6.89232 175.551 6.89232C177.804 6.89232 179.766 7.47443 181.436 8.5328C181.887 8.79739 182.337 9.35304 182.337 10.1468C182.337 11.2052 181.489 12.0254 180.429 12.0254C180.031 12.0254 179.713 11.9196 179.395 11.7344C178.043 10.9406 176.771 10.4908 175.498 10.4908C173.934 10.4908 173.112 11.2052 173.112 12.1048V12.1577C173.112 13.3749 173.908 13.7717 177.115 14.592C180.879 15.571 183 16.9204 183 20.1484V20.2014ZM144.778 24.3025C145.149 25.3345 145.918 25.9695 146.898 25.9695H147.323C148.303 25.9695 149.046 25.3609 149.417 24.3025L153.075 13.6924L156.733 24.3025C157.104 25.3609 157.846 25.9695 158.827 25.9695H159.251C160.232 25.9695 161.001 25.3345 161.372 24.3025L166.568 9.74993C166.647 9.51179 166.727 9.19428 166.727 8.95615C166.727 7.84486 165.825 6.99816 164.712 6.99816C163.705 6.99816 163.016 7.65964 162.75 8.45342L159.066 19.8045L155.355 8.55926C155.037 7.58026 154.321 6.94524 153.287 6.94524H152.969C151.935 6.94524 151.219 7.60672 150.901 8.55926L147.19 19.8045L143.505 8.45342C143.24 7.60672 142.471 6.99816 141.517 6.99816C140.377 6.99816 139.423 7.84486 139.423 8.9826C139.423 9.22074 139.503 9.51179 139.582 9.74993L144.778 24.3025ZM57.9355 23.7998C57.9355 24.9376 58.8367 25.8372 59.9766 25.8372C61.1165 25.8372 62.0178 24.9376 62.0178 23.7998V19.7515H65.2783L69.2546 24.7788C69.7317 25.3874 70.3414 25.8372 71.2692 25.8372C72.25 25.8372 73.2043 25.0963 73.2043 23.9586C73.2043 23.3236 72.9392 22.9002 72.5416 22.3975L69.7052 18.9578C71.9584 18.0317 73.4164 16.2325 73.4164 13.3219V13.269C73.4164 11.5227 72.8597 10.0674 71.8259 9.03553C70.6065 7.8184 68.7774 7.15691 66.4182 7.15691H59.9766C58.8367 7.15691 57.9355 8.05653 57.9355 9.19428V23.7998ZM62.0178 16.1531V10.8348H66.0736C68.0617 10.8348 69.2811 11.7344 69.2811 13.4807V13.5336C69.2811 15.0947 68.1412 16.1531 66.1531 16.1531H62.0178ZM79.1331 25.6784H89.5509C90.5582 25.6784 91.38 24.8847 91.38 23.8792C91.38 22.8737 90.5582 22.0535 89.5509 22.0535H81.1477V18.164H88.2255C89.2328 18.164 90.0546 17.3702 90.0546 16.3648C90.0546 15.3593 89.2328 14.5391 88.2255 14.5391H81.1477V10.7818H89.4184C90.4257 10.7818 91.2475 9.98806 91.2475 8.9826C91.2475 7.97715 90.4257 7.15691 89.4184 7.15691H79.1331C77.9932 7.15691 77.0919 8.05653 77.0919 9.19428V23.6411C77.0919 24.7788 77.9932 25.6784 79.1331 25.6784Z" fill="#2773E6"/>
<path d="M0 23.826C0 24.9373 0.901287 25.837 2.01464 25.837C3.128 25.837 4.02928 24.9373 4.02928 23.826V13.9038L12.1939 24.5934C12.7506 25.3078 13.3337 25.784 14.3146 25.784H14.4471C15.587 25.784 16.4883 24.8844 16.4883 23.7467V9.00883C16.4883 7.89754 15.587 6.99793 14.4736 6.99793C13.3603 6.99793 12.459 7.89754 12.459 9.00883V18.5606L4.58596 8.24151C4.02928 7.52711 3.4461 7.05085 2.46529 7.05085H2.04115C0.901287 7.05085 0 7.95046 0 9.08821V23.826Z" fill="#F2875A"/>
<path d="M28.6832 25.9693C33.6668 25.9693 36.8213 23.2175 36.8213 17.6081V9.03529C36.8213 7.89754 35.92 6.99793 34.7801 6.99793C33.6403 6.99793 32.739 7.89754 32.739 9.03529V17.7669C32.739 20.7039 31.228 22.212 28.7362 22.212C26.2444 22.212 24.7334 20.6509 24.7334 17.6346V9.03529C24.7334 7.89754 23.8321 6.99793 22.6923 6.99793C21.5524 6.99793 20.6511 7.89754 20.6511 9.03529V17.7404C20.6511 23.191 23.6996 25.9693 28.6832 25.9693Z" fill="#F2875A"/>
<path d="M47.58 25.9428C51.5827 25.9428 54.3926 23.879 54.3926 20.2011V20.1482C54.3926 16.9202 52.272 15.5707 48.5078 14.5917C45.3002 13.7715 44.505 13.3746 44.505 12.1575V12.1046C44.505 11.205 45.3267 10.4906 46.8907 10.4906C48.1631 10.4906 49.4356 10.9404 50.7875 11.7341C51.1056 11.9194 51.4237 12.0252 51.8213 12.0252C52.8816 12.0252 53.7299 11.205 53.7299 10.1466C53.7299 9.35281 53.2793 8.79716 52.8286 8.53257C51.1586 7.4742 49.197 6.89209 46.9438 6.89209C43.1531 6.89209 40.4492 9.11467 40.4492 12.475V12.5279C40.4492 16.2058 42.8615 17.2377 46.5991 18.1902C49.7006 18.984 50.3368 19.5132 50.3368 20.5451V20.598C50.3368 21.6828 49.3295 22.3443 47.6595 22.3443C45.8569 22.3443 44.3194 21.7093 42.9145 20.6774C42.6494 20.4922 42.2783 20.307 41.7481 20.307C40.6878 20.307 39.8395 21.1272 39.8395 22.1856C39.8395 22.8206 40.1576 23.4027 40.6082 23.7202C42.6759 25.2019 45.1412 25.9428 47.58 25.9428Z" fill="#F2875A"/>
</svg>
